PathFileType	4	(X/Y/Z)	Patient4_TMGait_0pt6_01_left_25.trc.trc
DataRate	CameraRate	NumFrames	NumMarkers	Units	OrigDataRate	OrigDataStartFrame	OrigNumFrames
82.352941176471	82.352941176471	6	33	mm	82.352941176471	89	       141
Frame#	Time	Sacral			L.Shoulder			Chest			R.Shoulder			Neck			R.ASIS			L.ASIS			R.Thigh.Superior			R.Thigh.Lateral			R.Thigh.Inferior			R.Patella			L.Thigh.Superior			L.Thigh.Lateral			L.Thigh.Inferior			L.Patella			L.Shank.Superior			L.Shank.Lateral			L.Shank.Inferior			R.Shank.Superior			R.Shank.Lateral			R.Shank.Inferior			R.Heel			R.Midfoot.Superior			R.Midfoot.Lateral			R.Toe			L.Heel			L.Midfoot.Lateral			L.Midfoot.Superior			L.Toe			L.Elbow			L.Wrist			R.Elbow			R.Wrist			
		X1	Y1	Z1	X2	Y2	Z2	X3	Y3	Z3	X4	Y4	Z4	X5	Y5	Z5	X6	Y6	Z6	X7	Y7	Z7	X8	Y8	Z8	X9	Y9	Z9	X10	Y10	Z10	X11	Y11	Z11	X12	Y12	Z12	X13	Y13	Z13	X14	Y14	Z14	X15	Y15	Z15	X16	Y16	Z16	X17	Y17	Z17	X18	Y18	Z18	X19	Y19	Z19	X20	Y20	Z20	X21	Y21	Z21	X22	Y22	Z22	X23	Y23	Z23	X24	Y24	Z24	X25	Y25	Z25	X26	Y26	Z26	X27	Y27	Z27	X28	Y28	Z28	X29	Y29	Z29	X30	Y30	Z30	X31	Y31	Z31	X32	Y32	Z32	X33	Y33	Z33	

89	31.488571428571	742.170894593495	998.757722746078	506.977207838044	891.743663145326	1433.820456143832	322.115353292078	1000.020799930290	1369.182019123519	480.974422764143	915.227340598168	1436.463494324974	655.565692655253	874.786493493802	1492.965397626125	475.813112085195	973.297971180846	941.996756613676	617.373159546668	952.744784555725	962.127388485151	343.010823854088	1031.033604461037	748.342276068795	580.938088721437	962.197911330350	633.004045914875	642.519074663516	1040.234862421053	588.221442091580	558.027650263506	1048.601900555972	499.274146978511	562.985148418008	992.574694235887	740.748327712078	365.273251275188	902.827283707566	626.301469843521	304.591355013424	991.183213165097	541.432190922010	358.780521133045	982.049647803228	455.017301370092	356.432978613180	911.345148591403	398.249762565337	356.288638796572	767.649945784094	357.359572130481	315.209502227391	753.377155860094	231.578055551721	377.053045312309	1026.169554230073	409.173504131941	571.488627946408	963.401740358863	300.164156345601	632.956658004543	1010.507702033047	209.351003371251	568.247695187026	885.611608474799	41.534724794691	536.967519510126	1055.665885228592	98.062203802260	571.408606238308	969.248482146589	36.605788860282	611.492896816820	1176.694613236545	48.201476731946	599.075769450244	562.533825991075	170.063300307248	423.563391903751	618.393777439994	116.860290501098	347.915768607975	722.750434218621	128.709075012121	365.924539386525	801.357676295433	31.224046728647	350.627847032159	924.482419957945	1084.559772762189	195.975874748016	1129.935199434416	921.826472970832	200.124268491718	861.322881816813	1092.076982836366	774.393836818545	981.323213037343	860.165455241170	767.267350022737	
90	31.500714285714	742.075051367263	999.294467058452	510.026140031849	889.881383070621	1434.290157590050	323.957659655599	999.908486739371	1369.616971056110	481.683783922151	917.017456390923	1436.726125014857	657.256187168552	874.792814927542	1493.388116440508	478.055193106051	973.941656855839	942.721444379873	618.537835149122	951.852279949992	962.415815568683	344.363400565091	1029.260736199451	747.349721813919	583.381737116840	958.744553370520	633.030166704141	644.521862151130	1036.176270748540	587.420845321425	559.968576891472	1043.322239647377	498.642957201543	564.568897917600	997.564586999866	743.762682173549	366.998699382517	912.884259202294	627.121126387900	304.943140512792	1003.916966303655	544.450066823762	359.248999035281	996.389846293126	456.918698456837	356.248743300940	924.116177114707	400.046528417540	356.078639443477	779.026493759387	363.853725633750	315.091832180039	760.826613092681	238.541410608594	376.691063045813	1020.576839555102	408.736523410738	572.888085714544	957.349954979171	299.831824150458	633.963783547012	1003.971797565954	209.011085936379	568.883193407898	878.375409941605	41.564895666449	537.089025504692	1048.564781571192	97.846779838776	571.658012185956	961.976978833785	36.543850814342	611.633503341210	1169.515704616844	47.742691999949	599.217799503363	567.955008284229	186.092815553675	423.123280880905	621.076865931542	129.695831780338	347.447145370865	726.311095741913	135.833550305431	365.344770468199	798.997078556655	31.248104184479	349.926619799347	918.198255980763	1083.537392292973	199.957229144450	1114.625447460712	909.530107628871	201.782964917186	870.813110439779	1091.516924674137	777.737203501554	1002.294473962477	866.120699821291	768.678878486864	
91	31.512857142857	741.764662757509	999.829092090127	512.856414308293	887.977128935917	1434.652139142696	325.625760198346	999.726537409708	1369.934354647059	482.215891383686	918.772674329953	1436.925232629842	658.765854686250	874.805760521117	1493.746701774684	480.128741138316	974.307355160947	943.369072680216	619.664677920483	950.695852984469	962.498777735081	345.679270513776	1027.274160824564	746.444899507309	585.890164572200	955.087172911036	633.060713467138	646.528994974442	1032.004663468672	586.666817948022	562.028401267685	1037.933781021527	498.077517199588	566.300498824227	1002.224355823660	747.068448227457	368.749995520026	922.579448789838	628.503865312112	305.188115221748	1016.062533412475	548.104922703803	359.689726994406	1010.321584227790	459.577141342793	356.049418001830	936.832285317637	402.425067572916	355.804798955008	790.609987405314	370.265040332895	314.999100478908	769.136315868796	245.406496722995	376.415493154196	1014.897787148090	408.340247107207	574.352057002496	951.179901214377	299.535344250418	635.012125330459	997.400330061515	208.705018133337	569.580284982623	871.108796914500	41.621601784840	537.226706485126	1041.453774171542	97.657065591791	571.921626250563	954.683361934932	36.492463533120	611.782577067268	1162.319498559634	47.238381056380	599.363951367048	574.826027804983	200.596059293279	422.945490404318	625.515960299124	141.788596752222	347.059822448818	731.358960964313	143.070425545078	364.815523741737	798.891082924093	31.961743931567	348.905612936427	911.643635638047	1082.425365307819	203.848937527945	1098.208910690257	897.641398450987	203.500108196959	880.662119263527	1091.018166169932	780.818280345902	1023.322085864675	872.757563156850	769.823932147437	
92	31.525000000000	741.271759437686	1000.390993245141	515.458661950894	886.078830359760	1434.953871458770	327.122741982087	999.480962886468	1370.184639881749	482.598029921315	920.459201614214	1437.128317810209	660.091073724623	874.815872230077	1494.089371362235	482.003764205277	974.416939766107	943.975208819853	620.786839610777	949.299520131781	962.445072336143	346.994343067845	1025.101554941970	745.662199325444	588.390855973203	951.259308844233	633.124437319418	648.495282581576	1027.729680361259	585.973414687588	564.144058871603	1032.447810097940	497.590622793216	568.118618083428	1006.476353962388	750.667173091805	370.524830759443	931.737445867963	630.461094038767	305.353617679149	1027.462408463370	552.375760895715	360.048316669443	1023.671656496719	462.979750403371	355.750154588393	949.344141946631	405.354540312780	355.425486488679	802.232557857220	376.376481707985	314.930856664996	778.311716597378	251.872635610674	376.189905259966	1009.139855216075	408.000257397051	575.839655623732	944.893208505689	299.301883420945	636.076486880528	990.792624831342	208.451430305678	570.327856385920	863.816024021934	41.701983653626	537.385687649569	1034.332113165660	97.505686822501	572.203475305642	947.375437088001	36.457132514730	611.942270354515	1155.105886739595	46.726109196481	599.517685833622	583.097965709008	212.852925615453	423.032181117141	631.812648924814	152.498059906918	346.749052000882	738.046958668464	150.028078841701	364.296137193000	801.501641104909	33.404405066171	347.532692945623	904.825445347640	1081.301221138533	207.638684331756	1080.727492431402	886.310859886874	205.290288274678	890.838168869687	1090.646795131495	783.563716865493	1044.285845488476	880.107841083169	770.678369536287	
93	31.537142857143	740.638503780638	1001.005179614937	517.838844168708	884.226180032471	1435.242401882884	328.461190567393	999.178136113493	1370.420463000407	482.863505168464	922.045973716223	1437.398831447294	661.237476475911	874.810174349838	1494.460440565027	483.660440909859	974.304668787476	944.571569153092	621.926996092263	947.704076174782	962.340702588770	348.333833571864	1022.759192974286	745.013795074023	590.814098725576	947.271987207629	633.242509393267	650.377271123448	1023.336427330507	585.345485518687	566.252237195115	1026.853005064837	497.187705524864	569.959300088162	1010.269553376611	754.541696095803	372.306250095739	940.220505657333	632.961864380927	305.465561143800	1038.008461155360	557.205663272439	360.272127921470	1036.306265467503	467.080572924432	355.291187807507	961.542443586638	408.768016608506	354.914515219379	813.773664080278	381.951063858697	314.872253487022	788.373913643574	257.635929645924	375.969825969360	1003.289119328795	407.728158758372	577.309275794473	938.478932343844	299.150424584903	637.129198968699	984.137197745231	208.266374759751	571.109988840086	856.500918629410	41.800661239094	537.566589162738	1027.197872339492	97.398851363885	572.503608965235	940.058705635166	36.439904865776	612.110663274866	1147.873583812105	46.240201193485	599.678717142609	592.726899222461	222.263785845488	423.347857172903	640.036392013315	161.249573645396	346.488290563220	746.505188489255	156.300406642421	363.738011986035	807.199159624736	35.491841768297	345.789698773313	897.753971453803	1080.247689148036	211.315035118312	1062.251361809785	875.685293774050	207.173974056943	901.291820443526	1090.473074110369	785.915790434627	1065.073007406034	888.209246377424	771.217113695125	
94	31.549285714286	739.910969764777	1001.688894278885	520.012789194575	882.448437008274	1435.556658479591	329.660128882753	998.825350457140	1370.687404858520	483.047219668742	923.508985601149	1437.786058490310	662.218631229818	874.776188522472	1494.893080656991	485.093067967242	974.011433466341	945.180707586721	623.093499008707	945.966884572062	962.276381937943	349.704890764896	1020.252696446139	744.493316709558	593.092488833729	943.126717770513	633.428131194356	652.137671715198	1018.797420717732	584.781158416730	568.293645340561	1021.127440119769	496.867675035133	571.764005416430	1013.577042984608	758.653308476025	374.062753099993	947.929156789254	635.934851292597	305.545839388562	1047.633771575417	562.502422393260	360.321114748411	1048.125582709249	471.800554652342	354.647989811256	973.350643824796	412.567101540563	354.266816816006	825.157335526792	386.750588508480	314.798583013642	799.347997919695	262.415175516695	375.707510490303	997.320748509653	407.530075960343	578.723258634059	931.923069558290	299.090636841508	638.144971346579	977.418022765523	208.160349494022	571.907973232310	849.166769956410	41.910793911292	537.766628096192	1020.048458578856	97.336791473039	572.818261411772	932.735933276900	36.439382701957	612.283193357404	1140.621062473291	45.807764144787	599.843786977103	603.684164243889	228.397248496881	423.820869210362	650.221517078017	167.584613351068	346.229532726574	756.824522215805	161.506262533288	363.087649329994	816.215497511557	38.018943688439	343.672854993633	890.443703594726	1079.341317913727	214.865302772909	1042.885372113058	865.901411648143	209.176302216020	911.957121519790	1090.561579742036	787.837423975959	1085.577799884814	897.098043775448	771.417049969076	
